<svg width="39" height="39" viewBox="0 0 39 39" fill="none" xmlns="http://www.w3.org/2000/svg">
<g clip-path="url(#clip0_23_44)">
<rect width="39" height="39" fill="white"/>
<path d="M3.27734 3.12891C4.08265 14.0243 3.2579 25.0278 2.99701 35.9274" stroke="#2BE4DE" stroke-width="5" stroke-linecap="round"/>
<path d="M5.94049 20.0882C7.79531 20.0882 9.68483 20.0167 11.3602 19.1071C16.8607 16.1205 18.1348 10.8762 18.1348 5.07505C18.1348 0.260959 17.588 14.6906 17.5196 19.5042C17.451 24.3345 17.8396 29.0358 18.275 33.8244" stroke="#2BE4DE" stroke-width="5" stroke-linecap="round"/>
<path d="M33.1324 18.8262C33.1324 23.3563 33.9734 27.8807 33.9734 32.4221" stroke="#2BE4DE" stroke-width="5" stroke-linecap="round"/>
<path d="M34.6742 8.59375C34.5453 9.75369 32.4439 11.8903 34.6664 12.7052C36.2917 13.3012 37.1837 7.88335 33.6931 9.43474" stroke="#2BE4DE" stroke-width="5" stroke-linecap="round"/>
</g>
<defs>
<clipPath id="clip0_23_44">
<rect width="39" height="39" fill="white"/>
</clipPath>
</defs>
</svg>
